<svg width="19" height="19" viewBox="0 0 19 19" fill="none" xmlns="http://www.w3.org/2000/svg">
<g clip-path="url(#clip0_159_3109)">
<path d="M17.1929 4.07807C17.2159 4.32267 17.078 4.46535 16.9339 4.60851C16.3552 5.18333 16.1931 5.86767 16.5024 6.61557C16.812 7.3643 17.424 7.74062 18.2272 7.73755C18.6902 7.73578 18.8967 7.92567 18.9396 8.36753C19.0168 9.16356 19.0301 9.95724 18.9198 10.7515C18.8703 11.1078 18.6766 11.2817 18.3165 11.2696C17.4574 11.2409 16.8291 11.6239 16.5004 12.4027C16.1758 13.1717 16.378 13.8663 16.9759 14.4431C17.2467 14.7044 17.278 14.9814 17.0492 15.283C16.5443 15.9483 15.9592 16.5334 15.2956 17.0406C14.977 17.284 14.6981 17.2464 14.4165 16.9605C13.837 16.3722 13.1433 16.1704 12.3726 16.5112C11.6383 16.836 11.2549 17.4347 11.2659 18.2469C11.2722 18.7048 11.066 18.9072 10.6209 18.948C9.8738 19.0164 9.13011 19.0182 8.38306 18.9482C7.94599 18.9073 7.71654 18.7202 7.72591 18.2558C7.7428 17.4191 7.35012 16.8111 6.58753 16.4932C5.83254 16.1785 5.14988 16.3768 4.58819 16.956C4.28742 17.2661 3.99457 17.2741 3.66697 17.0204C3.03334 16.5297 2.47321 15.9655 1.98024 15.3346C1.72615 15.0094 1.7382 14.712 2.04719 14.412C2.62849 13.8477 2.80846 13.1572 2.50109 12.4085C2.18784 11.6455 1.57652 11.2528 0.739358 11.2732C0.301779 11.2839 0.0982964 11.0764 0.0566704 10.6621C-0.0199354 9.89962 -0.0162458 9.13705 0.0518797 8.37469C0.0900472 7.94755 0.286205 7.73072 0.75964 7.73715C1.56373 7.74808 2.1778 7.37068 2.49132 6.62571C2.80497 5.88044 2.64732 5.18272 2.06878 4.6161C1.72309 4.27753 1.73479 3.97451 2.02039 3.61748C2.48952 3.031 3.01665 2.50657 3.60002 2.03407C3.95042 1.75026 4.25134 1.71007 4.59839 2.06202C5.16021 2.63177 5.84059 2.8271 6.60069 2.50377C7.34718 2.18622 7.73293 1.59749 7.72379 0.784418C7.71836 0.301979 7.93563 0.107693 8.40201 0.0588011C9.14999 -0.0196113 9.89094 -0.0215592 10.638 0.0647846C11.0567 0.113172 11.2711 0.288438 11.265 0.727971C11.253 1.5825 11.6455 2.19853 12.4365 2.51897C13.2029 2.82945 13.8693 2.60384 14.4295 2.03217C14.6942 1.76197 14.9711 1.71794 15.2707 1.94224C15.9526 2.45269 16.5464 3.05379 17.06 3.73304C17.1395 3.83829 17.2172 3.95113 17.1929 4.07807ZM9.50923 13.6576C11.7849 13.6553 13.67 11.774 13.6701 9.50505C13.6702 7.24703 11.774 5.34582 9.51269 5.3366C7.22443 5.32728 5.32803 7.2291 5.33545 9.52578C5.3428 11.8021 7.21936 13.6598 9.50923 13.6576Z" fill="black"/>
</g>
<defs>
<clipPath id="clip0_159_3109">
<rect width="19" height="19" fill="white"/>
</clipPath>
</defs>
</svg>
