<svg width="30" height="30" viewBox="0 0 30 30" fill="none" xmlns="http://www.w3.org/2000/svg">
<path d="M15 3.46094C24 3.46094 26.25 5.71094 26.25 14.7109C26.25 23.7109 24 25.9609 15 25.9609C6 25.9609 3.75 23.7109 3.75 14.7109C3.75 5.71094 6 3.46094 15 3.46094Z" fill="black"/>
<path d="M15 15.9606C15.5622 15.9623 16.1085 15.7745 16.5508 15.4274C16.9931 15.0804 17.3055 14.5944 17.4376 14.0479C17.5696 13.5015 17.5136 12.9264 17.2787 12.4157C17.0437 11.905 16.6434 11.4884 16.1425 11.2331C15.6452 10.9784 15.0764 10.8994 14.5285 11.009C13.9806 11.1187 13.486 11.4104 13.125 11.8369" stroke="white" stroke-width="2" stroke-linecap="round" stroke-linejoin="round"/>
<path d="M15 19.7109V19.7234" stroke="white" stroke-width="2" stroke-linecap="round" stroke-linejoin="round"/>
</svg>
