<svg width="18" height="18" viewBox="0 0 18 18" fill="none" xmlns="http://www.w3.org/2000/svg">
<path d="M18 9C18 10.78 17.4722 12.5201 16.4832 14.0001C15.4943 15.4802 14.0887 16.6337 12.4442 17.3149C10.7996 17.9961 8.99002 18.1743 7.24419 17.8271C5.49836 17.4798 3.89471 16.6226 2.63604 15.364C1.37737 14.1053 0.520203 12.5016 0.172935 10.7558C-0.17433 9.00998 0.00389862 7.20038 0.685087 5.55585C1.36628 3.91131 2.51983 2.50571 3.99987 1.51677C5.47991 0.527841 7.21997 0 9 0C11.3869 0 13.6761 0.948211 15.364 2.63604C17.0518 4.32387 18 6.61305 18 9ZM14.1429 8.35714H6.33215L9.91929 4.75264L9 3.85714L3.85715 9L9 14.1429L9.91929 13.2255L6.33215 9.64286H14.1429V8.35714Z" fill="black"/>
</svg>
