<svg width="28" height="28" viewBox="0 0 28 28" fill="none" xmlns="http://www.w3.org/2000/svg">
<g clip-path="url(#clip0_524_12384)">
<path d="M23.3483 18.3321C23.2641 18.2306 23.1813 18.129 23.1 18.031C21.9828 16.6797 21.3069 15.8642 21.3069 12.0388C21.3069 10.0584 20.8332 8.43336 19.8993 7.21461C19.2107 6.31426 18.2799 5.63125 17.053 5.12648C17.0372 5.1177 17.0231 5.10618 17.0114 5.09246C16.5701 3.61473 15.3625 2.625 14.0005 2.625C12.6386 2.625 11.4315 3.61473 10.9902 5.09094C10.9784 5.10415 10.9645 5.11531 10.9491 5.12395C8.08605 6.30258 6.69464 8.56387 6.69464 12.0373C6.69464 15.8642 6.01976 16.6797 4.90155 18.0295C4.8203 18.1275 4.73753 18.227 4.65323 18.3306C4.43548 18.5932 4.29752 18.9127 4.25567 19.2513C4.21383 19.5898 4.26984 19.9333 4.4171 20.241C4.73042 20.9012 5.39819 21.311 6.16042 21.311H21.8462C22.6049 21.311 23.2681 20.9017 23.5825 20.2446C23.7303 19.9368 23.7869 19.593 23.7454 19.2541C23.7039 18.9151 23.5661 18.5952 23.3483 18.3321ZM14.0005 25.375C14.7343 25.3744 15.4543 25.1752 16.0841 24.7986C16.7138 24.4219 17.2299 23.8818 17.5776 23.2356C17.5939 23.2046 17.602 23.1699 17.6011 23.1349C17.6001 23.0999 17.59 23.0657 17.5719 23.0357C17.5539 23.0057 17.5283 22.9809 17.4978 22.9637C17.4673 22.9465 17.4328 22.9375 17.3978 22.9375H10.6043C10.5692 22.9374 10.5347 22.9463 10.5041 22.9635C10.4735 22.9807 10.4479 23.0055 10.4298 23.0355C10.4116 23.0655 10.4015 23.0997 10.4005 23.1348C10.3995 23.1699 10.4076 23.2046 10.424 23.2356C10.7716 23.8817 11.2876 24.4218 11.9173 24.7984C12.547 25.1751 13.2668 25.3743 14.0005 25.375Z" fill="black"/>
<circle cx="21" cy="8" r="3.5" fill="#FF0000" stroke="white"/>
</g>
<defs>
<clipPath id="clip0_524_12384">
<rect width="28" height="28" fill="white"/>
</clipPath>
</defs>
</svg>
