<svg width="22" height="21" viewBox="0 0 22 21" fill="none" xmlns="http://www.w3.org/2000/svg">
<g clip-path="url(#clip0_524_15389)">
<path d="M15.6466 21H15.4569C14.9547 20.8512 14.4332 20.8541 13.9195 20.7949C9.53015 20.2884 5.14142 19.7761 0.750904 19.2802C0.425884 19.2435 0.185993 19.1308 0 18.871V3.77419C0.179508 3.57087 0.394964 3.42682 0.643529 3.31901C1.30949 3.03015 1.97045 2.72915 2.63153 2.42868C4.41004 1.62032 6.18759 0.809715 7.96552 0C8.06034 1.15355e-08 8.15517 1.15355e-08 8.25 1.15355e-08C8.332 0.101146 8.44995 0.0773648 8.55674 0.0914087C9.85467 0.262099 11.1529 0.430586 12.4506 0.603364C15.3114 0.98427 18.1714 1.37166 21.033 1.7464C21.7454 1.83968 21.9019 1.9932 21.9054 2.72372C21.9178 5.39916 21.9279 8.07462 21.9439 10.75C21.9456 11.0378 21.9805 11.3253 22 11.6129V17.0323C21.7621 17.3985 21.3692 17.5525 21.0216 17.7631C19.2327 18.8468 17.4387 19.9219 15.6466 21ZM4.62291 11.5502C4.64575 11.1646 4.66052 10.8757 4.68035 10.5871C4.79525 8.91512 4.91073 7.24317 5.02779 5.57133C5.04294 5.35499 5.07588 5.16855 4.75746 5.13394C3.67506 5.01628 2.59371 4.88395 1.51615 4.72716C1.1926 4.68008 1.15025 4.79125 1.15074 5.07802C1.15789 9.30381 1.15853 13.5296 1.14982 17.7554C1.14918 18.0637 1.23807 18.1675 1.54403 18.1962C2.80118 18.3143 4.05596 18.4593 5.3109 18.601C8.38526 18.948 11.4601 19.2908 14.5322 19.6573C14.9289 19.7047 15.0397 19.6313 15.0381 19.2096C15.0232 15.1291 15.0223 11.0484 15.0397 6.96785C15.0415 6.55776 14.8891 6.44713 14.5388 6.40489C12.9249 6.21027 11.3109 6.0136 9.70149 5.78473C9.35685 5.73571 9.27511 5.81063 9.2667 6.14995C9.22358 7.89083 9.16139 9.63124 9.10012 11.3716C9.09551 11.5027 9.16754 11.6586 9.01155 11.7803C8.42475 11.3722 7.82597 10.9821 7.25795 10.5498C6.96622 10.3278 6.74715 10.2919 6.42475 10.5052C5.873 10.8702 5.28175 11.1731 4.62291 11.5502ZM20.7358 3.38234C19.2992 4.30859 17.9479 5.19349 16.5801 6.05078C16.2864 6.23482 16.1834 6.43288 16.1844 6.78079C16.1963 10.7756 16.1914 14.7704 16.1943 18.7652C16.1944 18.9186 16.1503 19.0819 16.2613 19.2583C16.411 19.1752 16.5619 19.0981 16.7064 19.0103C17.938 18.2617 19.1615 17.4987 20.4039 16.7694C20.7307 16.5776 20.857 16.3729 20.8527 15.9792C20.8081 11.9204 20.7851 7.86129 20.7553 3.80228C20.7545 3.69395 20.7456 3.58568 20.7358 3.38234ZM10.1055 4.60765C10.2731 4.65547 10.3548 4.69014 10.4395 4.70124C12.0164 4.90804 13.5939 5.11103 15.1708 5.31775C15.3982 5.34755 15.5923 5.30417 15.7927 5.17326C16.9196 4.4371 18.0567 3.7173 19.1857 2.98452C19.2646 2.93328 19.4079 2.91511 19.3903 2.73154C18.1173 2.5635 16.8426 2.3907 15.5666 2.22944C15.1648 2.17866 14.7262 1.96117 14.3612 2.1611C12.9514 2.93354 11.5698 3.7597 10.1055 4.60765ZM2.877 3.61236C2.88703 3.64756 2.89705 3.68277 2.90708 3.71798C3.5929 3.80372 4.28831 3.84339 4.96162 3.98928C5.5353 4.11358 5.99058 3.9789 6.46972 3.67041C7.42925 3.05262 8.41886 2.48351 9.39499 1.89248C9.57773 1.78184 9.75551 1.66268 10.0425 1.47904C9.29267 1.40577 8.63744 1.07818 8.06796 1.30769C6.31392 2.0146 4.60404 2.83565 2.877 3.61236Z" fill="black"/>
</g>
<defs>
<clipPath id="clip0_524_15389">
<rect width="22" height="21" fill="white"/>
</clipPath>
</defs>
</svg>
