<svg width="18" height="18" viewBox="0 0 18 18" fill="none" xmlns="http://www.w3.org/2000/svg">
<path d="M0 9C0 10.78 0.527841 12.5201 1.51677 14.0001C2.50571 15.4802 3.91131 16.6337 5.55585 17.3149C7.20038 17.9961 9.00998 18.1743 10.7558 17.8271C12.5016 17.4798 14.1053 16.6226 15.364 15.364C16.6226 14.1053 17.4798 12.5016 17.8271 10.7558C18.1743 9.00998 17.9961 7.20038 17.3149 5.55585C16.6337 3.91131 15.4802 2.50571 14.0001 1.51677C12.5201 0.527841 10.78 0 9 0C6.61305 0 4.32387 0.948211 2.63604 2.63604C0.948211 4.32387 0 6.61305 0 9ZM3.85714 8.35714H11.6679L8.08071 4.75264L9 3.85714L14.1429 9L9 14.1429L8.08071 13.2255L11.6679 9.64286H3.85714V8.35714Z" fill="black"/>
</svg>
