<svg width="13" height="13" viewBox="0 0 13 13" fill="none" xmlns="http://www.w3.org/2000/svg">
<path d="M0 5.8714C0.0516495 3.99265 0.750303 2.43025 2.23245 1.29506C4.14861 -0.172566 6.2574 -0.394933 8.43884 0.638832C10.6353 1.67969 11.895 3.97478 11.6797 6.39199C11.5805 7.5054 11.1851 8.51021 10.505 9.39991C10.4345 9.49208 10.447 9.53453 10.5224 9.60926C11.2765 10.3574 12.0276 11.1086 12.7776 11.861C13.0258 12.1099 13.069 12.4495 12.8935 12.7097C12.6602 13.0555 12.1896 13.1016 11.8822 12.7981C11.1917 12.1162 10.507 11.4286 9.8191 10.7442C9.7181 10.6437 9.62375 10.4881 9.50604 10.4662C9.38493 10.4437 9.27262 10.6043 9.15706 10.6849C7.09581 12.1237 4.20307 12.0302 2.23706 10.4511C0.766125 9.26956 0.0452545 7.72195 0 5.8714ZM1.30711 5.87083C1.32636 8.39137 3.36466 10.4246 5.85509 10.4074C8.39565 10.3899 10.4197 8.34846 10.4016 5.82178C10.3836 3.30888 8.32931 1.30902 5.78324 1.32577C3.32077 1.34196 1.28829 3.40575 1.30711 5.87083Z" fill="white"/>
</svg>
