<svg width="14" height="20" viewBox="0 0 14 20" fill="none" xmlns="http://www.w3.org/2000/svg">
<path d="M6.20171 16.9337H7.90945V12.8934L9.27565 14.4418L10.4711 13.0628L7.05558 9.19191L3.6401 13.0628L4.85686 14.4176L6.20171 12.8934V16.9337ZM1.93235 19.8368C1.46272 19.8368 1.06055 19.6472 0.725833 19.2678C0.391116 18.8885 0.224042 18.433 0.224611 17.9014V2.41786C0.224611 1.88562 0.391969 1.42982 0.726687 1.05048C1.0614 0.671129 1.46329 0.481778 1.93235 0.482424H8.76332L13.8865 6.28875V17.9014C13.8865 18.4336 13.7192 18.8894 13.3845 19.2688C13.0498 19.6481 12.6479 19.8375 12.1788 19.8368H1.93235ZM7.90945 7.25647V2.41786H1.93235V17.9014H12.1788V7.25647H7.90945Z" fill="white"/>
</svg>
