<svg width="24" height="24" viewBox="0 0 24 24" fill="none" xmlns="http://www.w3.org/2000/svg">
<g clip-path="url(#clip0_524_12642)">
<path d="M11.9734 8.3021e-05C18.7107 0.0255804 24.0174 5.34063 24 12.0464C23.9827 18.6955 18.5926 24.0279 11.919 24.0001C5.27314 23.9734 -0.0347048 18.5471 4.761e-05 11.8158C0.0336416 5.30586 5.43416 -0.0242554 11.9734 8.3021e-05ZM5.14109 19.3804C5.35887 19.1799 5.37393 18.9354 5.44575 18.7233C5.89521 17.4032 6.60648 16.2477 7.61082 15.2811C9.91722 13.0605 13.2477 12.8508 15.7985 14.7723C17.1851 15.8177 18.0574 17.2259 18.5984 18.8566C18.7976 19.4581 18.8115 19.4627 19.2506 18.991C21.6091 16.4587 22.5011 13.4558 21.8802 10.0797C20.9581 5.06247 16.1981 1.14515 10.4675 2.04451C4.65571 2.95778 1.08201 8.12216 2.10836 13.917C2.48948 16.0669 3.56564 17.8656 5.14109 19.3804Z" fill="black"/>
<path d="M8.68957 8.91124C8.68957 7.68389 9.05447 6.73353 9.82597 5.95702C11.2137 4.5593 13.4194 4.7598 14.5384 6.40902C15.4871 7.80674 15.5543 9.29486 14.7863 10.7911C14.1202 12.0891 12.8853 12.715 11.4883 12.5307C10.3102 12.3754 9.12976 11.2048 8.80541 9.86855C8.71853 9.51043 8.67335 9.14767 8.68841 8.91124H8.68957Z" fill="black"/>
</g>
<defs>
<clipPath id="clip0_524_12642">
<rect width="24" height="24" fill="white"/>
</clipPath>
</defs>
</svg>
