<svg width="25" height="19" viewBox="0 0 25 19" fill="none" xmlns="http://www.w3.org/2000/svg">
<path d="M17.5 16.2501V18.7501H0V16.2501C0 16.2501 0 11.2501 8.75 11.2501C17.5 11.2501 17.5 16.2501 17.5 16.2501ZM13.125 4.37507C13.125 3.50977 12.8684 2.66391 12.3877 1.94445C11.9069 1.22498 11.2237 0.664226 10.4242 0.333093C9.62481 0.00195958 8.74515 -0.08468 7.89648 0.0841303C7.04781 0.252941 6.26826 0.669619 5.65641 1.28147C5.04455 1.89333 4.62788 2.67288 4.45906 3.52155C4.29025 4.37021 4.37689 5.24988 4.70803 6.0493C5.03916 6.84873 5.59992 7.53201 6.31938 8.01274C7.03885 8.49348 7.88471 8.75007 8.75 8.75007C9.91032 8.75007 11.0231 8.28913 11.8436 7.46866C12.6641 6.64819 13.125 5.53539 13.125 4.37507ZM17.425 11.2501C18.1934 11.8447 18.8222 12.6006 19.2671 13.4644C19.712 14.3283 19.9621 15.2791 20 16.2501V18.7501H25V16.2501C25 16.2501 25 11.7126 17.425 11.2501ZM16.25 6.57238e-05C15.3896 -0.00472517 14.5481 0.25251 13.8375 0.737566C14.5968 1.79849 15.0051 3.07042 15.0051 4.37507C15.0051 5.67971 14.5968 6.95164 13.8375 8.01257C14.5481 8.49762 15.3896 8.75486 16.25 8.75007C17.4103 8.75007 18.5231 8.28913 19.3436 7.46866C20.1641 6.64819 20.625 5.53539 20.625 4.37507C20.625 3.21474 20.1641 2.10195 19.3436 1.28147C18.5231 0.461002 17.4103 6.57238e-05 16.25 6.57238e-05Z" fill="#335908"/>
</svg>
